<svg
    xmlns="http://www.w3.org/2000/svg"
    viewBox="0 0 24 24"
    fill="currentColor"
    strokeLinecap="round"
    strokeLinejoin="round"
    strokeWidth="0"
    width="20"
    height="20"
    >
    <path
        fill="none"
        stroke="#020202"
        strokeMiterlimit="10"
        strokeWidth="1.91px"
        d="M1.5,5.3v9.54a3.82,3.82,0,0,0,3.82,3.82H7.23v2.86L13,18.66h5.73a3.82,3.82,0,0,0,3.82-3.82V5.3a3.82,3.82,0,0,0-3.82-3.82H5.32A3.82,3.82,0,0,0,1.5,5.3Z"
    />
    <circle cx="12" cy="8.16" r="1.91" fill="#020202" />
    <path
        d="M12,10.07h0a2.86,2.86,0,0,1,2.86,2.86v1H9.14v-1A2.86,2.86,0,0,1,12,10.07Z"
        fill="#020202"
    />
</svg>